<?xml version="1.0" standalone="no"?>
<!DOCTYPE svg PUBLIC "-//W3C//DTD SVG 20010904//EN"
 "http://www.w3.org/TR/2001/REC-SVG-20010904/DTD/svg10.dtd">
<svg version="1.0" xmlns="http://www.w3.org/2000/svg"
 width="290.000000pt" height="290.000000pt" viewBox="0 0 290.000000 290.000000"
 preserveAspectRatio="xMidYMid meet">
<metadata>
Created by potrace 1.14, written by Peter Selinger 2001-2017
</metadata>
<g transform="translate(0.000000,290.000000) scale(0.100000,-0.100000)"
fill="#000000" stroke="none">
<path d="M1362 2389 c-10 -4 -35 -9 -57 -12 -46 -6 -63 -10 -125 -28 -25 -7
-48 -13 -52 -15 -5 -1 -10 -3 -13 -4 -3 -1 -8 -3 -12 -4 -5 -1 -26 -11 -48
-21 -22 -10 -42 -19 -45 -20 -25 -8 -60 -30 -60 -38 0 -5 -6 -7 -14 -4 -8 3
-16 3 -18 -1 -2 -4 -28 -25 -58 -47 -30 -21 -85 -71 -122 -109 -90 -95 -92
-98 -114 -137 -11 -19 -23 -37 -28 -40 -5 -4 -5 -12 -2 -18 4 -6 2 -11 -3 -11
-12 0 -42 -64 -45 -95 -4 -34 11 -45 45 -33 16 5 27 13 25 17 -8 12 67 148
109 198 6 6 24 28 40 49 34 42 92 97 97 93 4 -4 45 29 67 54 8 9 20 17 25 17
5 0 31 14 59 31 27 17 58 31 68 32 11 1 19 5 19 10 0 5 7 7 15 3 8 -3 15 -1
15 4 0 6 8 10 18 10 10 0 22 3 26 7 3 4 16 8 29 10 12 2 26 8 31 13 4 4 15 6
22 3 8 -3 22 -2 32 2 48 21 355 24 387 4 6 -4 20 -5 32 -4 12 1 24 -4 27 -11
3 -7 14 -10 25 -7 13 3 21 1 21 -7 0 -7 7 -10 15 -6 8 3 15 1 15 -4 0 -6 3 -9
8 -8 8 3 125 -43 132 -52 3 -3 23 -17 45 -30 67 -40 162 -115 192 -151 15 -19
31 -35 36 -37 4 -2 7 -8 7 -13 0 -6 9 -20 20 -31 11 -12 29 -41 41 -65 11 -24
25 -45 30 -49 5 -3 9 -14 9 -25 0 -10 4 -19 10 -19 5 0 9 -3 8 -7 -1 -5 4 -21
10 -36 7 -16 12 -39 12 -53 0 -13 5 -24 10 -24 7 0 10 -20 9 -48 -1 -27 2 -55
7 -63 13 -21 14 -39 1 -39 -8 0 -8 -3 -2 -8 13 -9 14 -65 0 -74 -7 -5 -6 -8 2
-8 11 0 11 -12 0 -40 -9 -20 -19 -70 -21 -97 0 -13 -4 -23 -8 -23 -5 0 -8 -9
-8 -19 0 -11 -5 -23 -10 -26 -6 -4 -10 -12 -9 -18 1 -7 -4 -25 -11 -42 -7 -16
-13 -33 -12 -37 1 -5 -3 -8 -8 -8 -6 0 -15 -10 -20 -22 -15 -35 -33 -61 -52
-76 -10 -7 -18 -17 -18 -21 0 -5 -15 -24 -32 -43 l-33 -35 -116 1 c-67 0 -120
-3 -125 -9 -5 -5 -10 -20 -12 -33 -4 -24 -7 -23 102 -25 69 -1 79 -15 26 -37
-16 -7 -43 -23 -61 -36 -18 -13 -36 -21 -40 -18 -5 3 -9 1 -9 -4 0 -9 -37 -25
-52 -23 -5 1 -8 -3 -8 -8 0 -5 -15 -13 -32 -17 -40 -10 -39 -9 -58 -16 -24
-10 -102 -28 -140 -34 -55 -9 -243 -13 -260 -7 -8 3 -31 8 -50 9 -58 6 -100
16 -100 24 0 5 -8 7 -17 5 -10 -1 -24 2 -30 7 -7 6 -20 8 -28 4 -8 -3 -15 -1
-15 3 0 8 -63 35 -66 29 -1 -2 -11 5 -21 15 -11 9 -23 14 -26 10 -4 -3 -7 -1
-7 6 0 7 -4 10 -9 7 -5 -3 -14 1 -21 9 -7 8 -18 15 -25 15 -7 0 -15 6 -18 13
-3 8 -19 20 -36 29 -30 14 -18 15 161 14 224 -1 239 0 231 22 -5 10 -2 13 6 8
9 -6 9 -3 -1 13 -7 12 -20 21 -28 22 -8 0 -118 1 -245 2 l-229 1 -26 30 c-14
17 -28 32 -32 34 -5 2 -8 8 -8 14 0 9 -14 28 -60 85 -6 7 -10 19 -10 27 0 8
-5 18 -11 21 -8 6 -30 47 -33 65 -1 3 -5 11 -9 18 -5 6 -6 12 -2 12 3 0 -1 12
-8 28 -7 15 -13 34 -12 42 0 8 -3 17 -7 20 -4 3 -8 22 -10 43 -1 20 -6 37 -11
37 -4 0 -6 4 -2 9 3 6 -3 15 -14 20 -30 17 -51 -10 -45 -57 5 -33 14 -78 19
-92 1 -3 6 -20 10 -38 4 -18 11 -35 16 -38 4 -2 6 -11 2 -19 -3 -8 0 -15 5
-15 10 0 23 -27 28 -60 2 -8 8 -16 14 -18 5 -2 8 -8 4 -13 -3 -5 -1 -9 4 -9 6
0 13 -10 16 -22 7 -30 55 -86 135 -162 35 -34 78 -74 94 -90 16 -15 36 -29 42
-30 7 -1 20 -8 29 -15 22 -19 186 -102 186 -94 0 3 7 0 15 -7 8 -7 15 -9 15
-6 0 4 9 2 21 -4 29 -16 101 -31 164 -34 17 0 33 -5 36 -9 4 -5 60 -8 125 -8
141 1 154 2 154 11 0 4 15 7 33 7 17 0 43 3 57 5 23 5 34 8 80 25 26 10 44 15
63 16 9 1 17 5 17 9 0 4 6 8 13 8 20 0 192 102 233 138 20 18 45 37 55 43 11
5 19 17 19 26 0 9 3 14 6 10 3 -3 19 9 35 26 82 91 99 113 94 125 -2 6 3 12
12 12 9 0 13 3 10 6 -4 4 3 20 14 35 11 16 17 29 12 29 -4 0 0 5 10 11 14 8
16 14 6 25 -7 9 -8 14 -1 14 11 0 45 81 45 106 0 8 4 14 9 14 5 0 7 16 5 36
-3 21 0 37 7 40 14 5 13 218 -2 254 -5 14 -8 34 -6 44 2 11 -1 25 -7 33 -7 7
-9 13 -6 13 6 0 -4 27 -40 110 -25 58 -38 85 -43 90 -12 12 -50 70 -50 76 0 4
-7 14 -15 23 -109 114 -135 141 -141 141 -4 0 -16 10 -28 23 -11 12 -33 28
-48 34 -16 7 -28 17 -28 23 0 5 -6 10 -14 10 -7 0 -30 11 -50 25 -20 13 -36
22 -36 19 0 -3 -10 2 -22 10 -12 9 -30 16 -40 16 -10 0 -18 5 -18 11 0 6 -6 9
-14 6 -7 -3 -19 0 -25 6 -6 6 -11 7 -11 3 0 -5 -6 -3 -14 3 -14 12 -41 20 -86
26 -14 2 -27 4 -30 5 -3 1 -8 2 -12 1 -5 0 -8 2 -8 7 0 8 -15 9 -178 14 -62 2
-121 0 -130 -3z"/>
<path d="M1197 2008 c-3 -9 -2 -18 2 -20 3 -2 24 -27 46 -55 21 -29 43 -53 47
-53 4 0 8 -6 8 -13 0 -8 11 -24 25 -37 13 -12 22 -26 20 -31 -3 -4 4 -11 16
-14 12 -4 18 -12 15 -20 -3 -8 3 -17 15 -20 10 -4 19 -11 19 -17 0 -6 7 -19
16 -29 13 -14 16 -47 16 -191 0 -270 -2 -316 -12 -293 -5 11 -9 16 -9 11 -1
-5 -9 0 -18 10 -10 10 -39 38 -65 61 -36 32 -43 44 -34 53 7 5 12 21 10 35 -1
14 2 25 8 25 6 0 8 13 6 28 -2 16 2 34 9 41 22 20 -2 51 -39 51 -17 0 -29 -3
-26 -6 4 -3 0 -20 -7 -39 -8 -18 -11 -35 -8 -38 3 -4 0 -13 -6 -21 -7 -8 -10
-20 -6 -26 16 -26 -18 -6 -66 40 -193 180 -209 191 -238 156 -12 -14 34 -64
190 -209 22 -21 39 -40 37 -42 -2 -3 -20 -4 -39 -5 -18 0 -49 0 -67 0 -40 0
-60 -18 -53 -45 6 -20 13 -21 126 -20 l120 1 33 -32 c17 -18 32 -30 32 -28 0
1 21 -17 47 -41 26 -25 51 -45 55 -45 11 0 21 -66 21 -140 0 -62 -1 -65 -24
-66 -40 -1 -67 -14 -72 -34 -3 -11 -1 -20 5 -20 5 0 7 -3 5 -7 -4 -6 261 -9
329 -4 6 1 12 12 12 26 0 31 -21 37 -122 38 -75 1 -85 8 -61 46 5 10 4 12 -3
7 -16 -9 -15 7 0 22 7 7 8 12 2 12 -12 0 -12 153 1 162 6 5 5 8 -3 8 -18 0 29
45 72 68 19 11 33 22 29 26 -3 3 8 11 25 17 18 6 32 15 32 19 0 5 11 15 24 22
32 18 110 70 116 77 3 4 34 26 70 50 36 24 67 47 70 50 3 3 17 12 32 20 15 8
25 18 22 23 -3 4 4 8 14 8 30 0 34 36 7 54 -20 13 -25 13 -35 1 -7 -8 -18 -15
-25 -15 -6 0 -20 -9 -29 -19 -10 -11 -31 -25 -47 -31 -16 -7 -27 -16 -24 -20
3 -5 -11 -14 -30 -20 -19 -6 -34 -14 -32 -18 1 -4 -2 -8 -6 -9 -4 -1 -15 -9
-23 -18 -28 -28 -34 -16 -34 68 0 71 -3 87 -20 102 -19 17 -20 17 -38 -5 -15
-19 -18 -40 -17 -132 l1 -110 -55 -37 c-31 -20 -62 -42 -69 -48 -30 -28 -51
-2 -28 35 4 6 3 12 -2 12 -10 0 -9 30 2 48 4 6 3 12 -1 12 -10 0 -9 72 1 88 4
7 3 12 -2 12 -10 0 -9 30 2 48 4 6 3 12 -1 12 -10 0 -9 72 1 88 4 7 2 12 -4
12 -11 0 -5 10 33 51 9 10 15 19 12 19 -3 0 3 9 13 19 23 26 32 39 65 89 15
23 32 42 38 42 5 0 8 4 5 9 -4 5 -1 11 4 13 6 2 12 10 13 18 2 8 6 20 10 26 7
12 -15 26 -42 28 -13 1 -71 -68 -88 -104 -7 -14 -27 -41 -50 -65 -7 -8 -13
-18 -13 -24 0 -6 -4 -11 -10 -11 -5 0 -10 -7 -10 -15 0 -8 -7 -15 -16 -15 -8
0 -13 4 -10 9 3 5 -4 20 -17 33 -37 42 -57 68 -57 74 0 3 -11 15 -26 26 -14
11 -23 22 -21 25 3 2 -5 14 -17 26 -11 13 -32 37 -45 55 -18 24 -31 32 -52 30
-17 -1 -30 -9 -32 -20z"/>
<path d="M523 1698 c-24 -27 -36 -68 -20 -68 7 0 5 -5 -3 -10 -12 -8 -12 -10
-1 -10 11 0 11 -3 1 -15 -11 -13 -10 -18 6 -30 24 -18 29 -18 45 1 17 21 29
114 17 137 -12 23 -20 22 -45 -5z"/>
<path d="M495 1504 c-12 -12 -12 -19 -2 -34 6 -11 16 -20 22 -20 15 1 41 24
40 37 0 28 -38 39 -60 17z"/>
<path d="M1747 909 l-22 -19 21 -18 c26 -22 105 -22 127 -1 42 42 -79 78 -126
38z"/>
</g>
</svg>
